<?xml version="1.0" encoding="utf-8"?><!DOCTYPE svg PUBLIC "-//W3C//DTD SVG 1.1//EN" "http://www.w3.org/Graphics/SVG/1.1/DTD/svg11.dtd"><svg version="1.1" id="Contours" xmlns="http://www.w3.org/2000/svg" xmlns:xlink="http://www.w3.org/1999/xlink" x="0px" y="0px" width="1240.368164px" height="1240.368164px" viewBox="-0.000000 0.000000 1240.368164 1647.422485" enable-background="new 0 0 1240.368164 1240.368164" xml:space="preserve" stroke="black" fill="none" stroke-linecap='round' stroke-linejoin='round'><path class="selected"  fill="#000000" opacity="1.000000" stroke="none" 
 	d="
M776.704925 669.156824 C683.785769 673.285550 589.746185 645.817447 513.658152 592.323266 C484.942923 572.134842 457.974474 547.316589 444.114130 515.067129 C430.253786 482.817669 432.217259 441.917436 456.255945 416.338569 C497.870831 466.557127 553.778981 503.973873 614.375326 528.094089 C674.971672 552.214305 740.197225 563.411883 805.363290 566.073820 C816.397868 566.524567 827.637071 566.768563 838.101977 570.297138 C844.876587 572.581415 851.119853 576.178178 857.312098 579.751602 C875.060624 589.993934 892.809151 600.236266 910.557678 610.478597 C912.048828 611.339110 913.585612 612.239984 914.594072 613.635341 C918.177901 618.594109 913.045586 625.130246 908.143646 628.791419 C870.864215 656.634779 823.188715 667.091385 776.704926 669.156824 z"/><path class="selected"  fill="#000000" opacity="1.000000" stroke="none" 
 	d="
M312.631915 628.439277 C365.099800 608.168366 422.362090 600.431266 478.328227 606.050912 C482.602507 606.480099 487.590640 607.479282 489.399834 611.375497 C491.570390 616.049920 487.602647 621.161227 483.801247 624.641300 C445.619678 659.595435 394.390134 676.514170 343.787150 687.421121 C259.430734 705.603277 170.230250 709.447411 87.759202 684.048161 C89.633787 677.568182 95.061879 672.834982 100.303795 668.589218 C163.807744 617.153377 238.871746 580.073118 318.311574 560.897327 C341.120453 555.391545 364.489449 551.325877 387.937519 552.189965 C411.385588 553.054052 435.054631 559.102801 454.380672 572.409294 C453.192451 576.840760 447.363111 577.650443 442.775530 577.712582 C402.363418 578.259954 362.149905 589.690144 327.491636 610.480592 C320.544924 614.647714 313.105772 620.352425 312.631914 628.439276 z"/><path class="selected"  fill="#000000" opacity="1.000000" stroke="none" 
 	d="
M147.572244 1120.024224 C189.346486 1173.565546 242.746169 1217.988356 302.996224 1249.320309 C285.899388 1260.899547 263.178571 1259.936087 243.164793 1254.853838 C207.028446 1245.677464 174.836734 1224.887123 146.195958 1201.017742 C77.199495 1143.515707 24.935223 1065.549207 0.722656 979.057892 C-0.148230 975.946943 -0.702593 971.956030 1.921263 970.071402 C3.952221 968.612639 6.756756 969.326778 9.132702 970.106300 C64.972003 988.426605 119.450051 1011.855556 168.636320 1044.017211 C217.822589 1076.178867 261.689917 1117.345037 292.917699 1167.129440 C296.034401 1172.098193 299.054292 1178.494388 295.999507 1183.501446 C256.951241 1146.275505 206.925993 1120.707078 153.882170 1110.863791 C150.751294 1110.282798 146.636301 1110.245522 145.390075 1113.175856 C144.403700 1115.495180 146.021863 1118.037133 147.572239 1120.024225 z"/><path class="selected"  fill="#000000" opacity="1.000000" stroke="none" 
 	d="
M706.967139 1569.608161 C669.078019 1544.065334 620.120604 1544.037142 574.434305 1544.922275 C584.561311 1521.006436 608.571291 1505.167622 633.712864 1498.654178 C658.854437 1492.140733 685.306713 1493.642626 711.190803 1495.772773 C810.971560 1503.984303 910.495161 1520.872629 1010.538409 1517.002585 C918.683788 1585.340980 810.708834 1635.070448 696.714447 1645.685887 C634.835058 1651.448248 567.952616 1644.077637 519.483318 1605.180457 C516.882673 1603.093410 514.146408 1600.543234 513.949719 1597.214506 C513.643087 1592.024988 519.374473 1588.810937 524.250185 1587.007457 C582.280060 1565.542830 645.929004 1559.481830 706.967138 1569.608161 z"/><path class="selected"  fill="#000000" opacity="1.000000" stroke="none" 
 	d="
M620.168900 1198.770657 C661.420537 1127.636299 727.284993 1073.687627 797.941700 1031.623102 C806.574578 1026.483633 815.906418 1020.806769 819.503626 1011.425894 C821.402536 1006.473874 821.449298 1001.042654 821.911817 995.759243 C823.183230 981.235712 827.821361 967.017352 835.358560 954.537765 C840.372560 946.235913 846.981183 938.449700 855.860661 934.548956 C864.740140 930.648212 876.215491 931.533798 882.831848 938.624973 C889.171332 945.419407 889.618316 955.590460 891.817438 964.619146 C895.848136 981.167559 907.134414 995.811056 922.110628 1003.923361 C926.421216 1006.258314 922.415323 1012.712123 918.389401 1015.509464 C900.959501 1027.620325 882.544782 1040.112041 861.441576 1042.376774 C855.779345 1042.984428 850.026306 1042.833642 844.441690 1043.948167 C835.775647 1045.677655 828.017764 1050.340298 820.513350 1055.006686 C747.827613 1100.204069 680.079795 1153.336503 618.861507 1213.155740 C615.228164 1209.445214 617.563681 1203.263098 620.168899 1198.770657 z"/><path class="selected"  fill="#000000" opacity="1.000000" stroke="none" 
 	d="
M467.889620 811.875785 C470.934249 808.763511 474.461012 805.557439 478.805728 805.275574 C483.150445 804.993709 487.788612 809.493924 485.924374 813.428467 C475.430902 835.575312 468.135758 859.091582 461.638431 882.721656 C425.624563 1013.700182 413.242326 1151.138574 425.265791 1286.444928 C411.693394 1269.804335 404.281684 1249.050268 398.385566 1228.401900 C373.786737 1142.256049 371.604727 1049.812133 392.111725 962.601623 C405.145286 907.173546 428.071834 852.578234 467.889620 811.875785 z"/><path class="selected"  fill="#000000" opacity="1.000000" stroke="none" 
 	d="
M1179.366781 1236.166254 C1163.735262 1219.753724 1143.482600 1207.887881 1121.662802 1201.755023 C1107.800971 1197.858899 1092.963034 1196.070900 1080.803925 1188.358170 C1106.589156 1178.723944 1135.893789 1185.250640 1160.540754 1197.507210 C1192.687470 1213.493296 1219.955921 1239.132965 1237.889141 1270.235472 C1240.295103 1274.408256 1242.015069 1280.782363 1237.823852 1283.156070 C1236.110955 1284.126174 1234.003505 1283.931256 1232.047815 1283.706766 C1208.007776 1280.947248 1183.824858 1277.989232 1160.740212 1270.734061 C1137.655565 1263.478889 1115.498499 1251.611338 1099.488643 1233.466837 C1097.334491 1231.025465 1095.238173 1227.386772 1097.185281 1224.777282 C1098.545868 1222.953848 1101.163190 1222.766591 1103.438271 1222.776881 C1129.262257 1222.893713 1155.060466 1227.443015 1179.366781 1236.166254 z"/><path class="selected"  fill="#000000" opacity="1.000000" stroke="none" 
 	d="
M741.453344 795.836258 C721.225310 854.416588 681.397539 904.340056 637.002743 947.582751 C633.978639 943.011849 634.041974 937.130768 634.300800 931.656157 C637.331744 867.547909 652.658921 804.042991 679.203835 745.609940 C680.541945 742.664373 682.028006 739.586741 684.705334 737.770477 C687.382662 735.954213 691.617678 736.026956 693.336601 738.767796 C694.295791 740.297234 694.262364 742.224599 694.197751 744.028776 C693.316800 768.627219 692.435850 793.225662 691.554899 817.824104 C709.718282 789.409738 721.973991 757.702056 734.108330 726.237116 C735.226997 723.336358 739.460455 722.806066 742.053429 724.521377 C744.646404 726.236688 745.912642 729.341804 746.812346 732.317765 C753.065423 753.001131 748.506027 775.411707 741.453344 795.836258 z"/><path class="selected"  fill="#000000" opacity="1.000000" stroke="none" 
 	d="
M839.291059 1172.125267 C814.900723 1208.452815 797.453296 1249.424141 788.165147 1292.182877 C787.444406 1295.500870 785.245641 1299.792118 782.026455 1298.712588 C779.756486 1297.951371 779.247857 1295.021177 779.147407 1292.629081 C778.049054 1266.473024 779.909181 1239.774975 789.089149 1215.258167 C798.269117 1190.741358 815.428651 1168.476656 839.013650 1157.114722 C841.890965 1157.817077 843.402244 1161.224927 843.037739 1164.164208 C842.673234 1167.103490 840.942021 1169.666289 839.291063 1172.125269 z"/><path class="selected"  fill="#000000" opacity="1.000000" stroke="none" 
 	d="
M995.572749 879.801376 C1027.461622 874.035649 1061.093195 878.325269 1090.513857 891.910867 C1097.441600 895.109895 1104.663114 899.386804 1107.340964 906.532189 C1109.468816 912.210001 1108.264775 918.539026 1106.856861 924.436744 C1100.911139 949.343235 1091.729159 973.475208 1079.614609 996.034520 C1106.935491 987.347765 1129.700844 965.409542 1139.392317 938.428703 C1140.587049 935.102595 1142.039716 931.246133 1145.414943 930.198174 C1149.238721 929.010947 1152.950237 932.206235 1155.460596 935.325351 C1171.039461 954.682061 1175.749986 980.723348 1175.605142 1005.570124 C1175.385990 1043.163783 1162.705607 1083.977135 1130.768315 1103.809953 C1124.334606 1107.805240 1115.770757 1110.735677 1109.487164 1106.508222 C1104.729366 1103.307282 1103.118315 1097.211843 1101.107034 1091.841799 C1099.095753 1086.471756 1095.350373 1080.686140 1089.623857 1080.386751 C1084.445864 1080.116042 1080.257385 1084.538545 1077.630775 1089.009092 C1072.008910 1098.577629 1069.918506 1110.169110 1071.843748 1121.098689 C1073.133247 1128.419164 1064.080830 1132.822664 1056.821199 1134.419508 C1024.111107 1141.614482 989.766832 1144.474958 957.256842 1136.423975 C924.746853 1128.372993 894.183161 1108.271141 878.981604 1078.427710 C876.984673 1074.507370 876.242221 1068.186481 880.508878 1067.112968 C913.861258 1058.721350 943.148255 1035.373658 958.761199 1004.729956 C940.536465 997.660321 924.007049 984.599165 916.062381 966.738511 C908.117713 948.877857 910.204245 926.084841 923.781913 912.021852 C926.624925 909.077219 930.058841 906.473998 934.075566 905.686912 C941.119447 904.306649 948.011111 908.790356 952.914967 914.031880 C957.818822 919.273405 961.762421 925.557420 967.687412 929.609069 C973.612403 933.660717 982.624189 934.632494 987.360648 929.239227 C992.741087 923.112679 989.412712 913.652114 986.079397 906.210829 C982.746083 898.769544 980.112241 888.847653 986.216602 883.442055 C988.754991 881.194232 992.236252 880.404636 995.572748 879.801374 M1053.781782 997.560081 C1048.458664 992.941171 1047.701086 984.988831 1048.293212 977.966061 C1048.885338 970.943292 1050.412860 963.697203 1048.262887 956.985458 C1046.112914 950.273713 1038.366332 944.674169 1032.075418 947.851323 C1024.643918 951.604514 1025.703358 963.163123 1019.701256 968.932734 C1016.836802 971.686234 1012.783786 972.702675 1009.008430 973.941037 C995.857736 978.254618 984.036026 986.532871 975.485526 997.415733 C970.688336 1003.521473 967.035259 1012.662586 972.037449 1018.601542 C975.405377 1022.600182 981.485261 1023.222458 986.519678 1021.812959 C991.554095 1020.403459 995.946683 1017.367842 1000.608255 1015.001033 C1007.553480 1011.474744 1015.232249 1009.401425 1023.008469 1008.952820 C1027.353464 1008.702160 1032.251692 1009.195582 1035.081964 1012.501844 C1037.912236 1015.808106 1036.219499 1022.436205 1031.868324 1022.340891 C1025.740012 1022.206647 1019.383505 1022.115303 1013.772451 1024.583152 C1008.161396 1027.051001 1003.517145 1032.853263 1004.447295 1038.912061 C1005.556896 1046.139774 1013.595738 1050.127676 1020.847067 1051.070689 C1028.098397 1052.013703 1035.776252 1051.206336 1042.437277 1054.223256 C1043.913660 1054.891942 1045.382721 1055.817021 1046.100242 1057.270296 C1048.577766 1062.288306 1041.040070 1065.918169 1035.586445 1067.173765 C1026.782181 1069.200782 1017.080697 1075.965241 1018.615908 1084.868441 C1019.948251 1092.595141 1029.922633 1096.435747 1037.229238 1093.591359 C1044.535843 1090.746972 1049.126562 1083.340500 1051.392723 1075.834400 C1053.075542 1070.260478 1061.280855 1072.430520 1067.079988 1071.910380 C1072.930123 1071.385668 1078.039267 1066.300306 1078.591270 1060.452683 C1079.143274 1054.605060 1075.075996 1048.653464 1069.427390 1047.043292 C1066.034650 1046.076170 1065.698629 1040.902731 1068.092116 1038.310970 C1070.485604 1035.719209 1074.263428 1035.061887 1077.754008 1034.550161 C1086.155868 1033.318432 1094.557728 1032.086702 1102.959588 1030.854972 C1106.680991 1030.309407 1108.562386 1025.585990 1107.428814 1021.999697 C1106.295242 1018.413404 1103.151690 1015.868460 1100.010671 1013.799527 C1091.316195 1008.072633 1081.358301 1004.275163 1071.058264 1002.758448 C1065.016366 1001.868759 1058.394437 1001.562515 1053.781782 997.560080 M1141.652351 1046.858561 C1148.007317 1041.246555 1150.124988 1030.031705 1143.677848 1024.525836 C1139.427309 1020.895868 1132.659184 1021.065801 1128.120404 1024.328195 C1123.581624 1027.590588 1121.268188 1033.413802 1121.512772 1038.998058 C1121.697821 1043.223089 1123.486277 1047.674672 1127.178652 1049.736588 C1131.761199 1052.295596 1137.718160 1050.332805 1141.652351 1046.858562 z"/><path class="selected"  fill="#000000" opacity="1.000000" stroke="none" 
 	d="
M620.453794 110.869068 C634.568430 82.742476 652.729940 55.985591 677.645545 36.762149 C722.329881 2.286293 782.987082 -3.747985 839.150583 1.813982 C892.188957 7.066463 944.306239 21.496164 992.493479 44.269997 C1016.241839 55.493739 1042.348756 74.575480 1040.006638 100.737886 C1039.410580 107.396108 1036.912928 114.181110 1038.824480 120.586824 C1043.482220 136.195168 1065.646644 134.001452 1081.916609 133.224808 C1112.493287 131.765226 1142.088364 148.012906 1162.110151 171.168718 C1182.131937 194.324530 1193.626691 223.707479 1201.011708 253.414803 C1217.924175 321.447698 1214.408166 395.537911 1184.670663 459.021666 C1154.933159 522.505420 1097.697624 574.021861 1029.568308 590.541621 C961.438991 607.061380 883.857608 585.497935 838.656635 531.912692 C941.727772 533.892473 1043.592999 473.927440 1091.882014 382.846434 C1027.502622 438.701044 949.568406 478.819690 866.702855 498.763212 C843.509270 504.345287 817.781533 508.062796 796.839923 496.636908 C789.769451 492.779209 783.533702 487.310949 775.958657 484.573779 C768.383611 481.836608 758.480126 482.819968 754.227037 489.659899 C749.485611 497.285185 754.249616 507.307930 760.264016 513.975246 C766.278416 520.642563 773.924961 526.714183 775.905245 535.472299 C659.319193 528.636073 546.449260 472.255673 470.959682 383.146946 C461.525397 372.010612 443.173358 377.613403 431.457743 386.317885 C419.742127 395.022367 407.746158 406.653417 393.221415 405.219715 C380.779169 403.991572 371.512551 393.374144 364.734198 382.868347 C327.252508 324.775316 326.953723 244.857350 363.999993 186.485685 C377.030991 165.953495 394.736328 147.713197 416.975993 137.875767 C439.215659 128.038337 466.337606 127.597358 487.081662 140.288374 C504.312773 105.504206 531.588981 75.768407 564.759914 55.605603 C581.753536 45.276105 605.395825 38.086428 620.100788 51.474697 C599.065300 79.368248 579.667851 109.166965 569.216888 142.503421 C558.765925 175.839877 558.008824 213.335635 573.352993 244.721912 C583.322076 265.113530 600.090889 283.823730 599.921253 306.521129 C599.292946 390.588147 665.821859 470.152260 748.672143 484.417207 C698.022562 436.652720 644.157750 382.617133 637.304523 313.336115 C635.517302 295.268688 636.271000 274.796771 623.480835 261.911207 C604.506904 242.795800 596.492673 214.665801 597.667055 187.758006 C598.841437 160.850210 608.373667 134.941442 620.453793 110.869068 M936.619616 286.375762 C938.483747 292.480068 935.986647 299.300665 931.617846 303.953740 C927.249044 308.606816 921.275450 311.416246 915.252683 313.529019 C883.903996 324.526068 848.285522 318.806630 818.966970 303.183003 C789.648418 287.559375 766.047296 262.843516 746.716148 235.825338 C748.812189 273.662006 773.586831 308.140150 806.345637 327.189232 C839.104443 346.238314 878.764743 351.085504 916.361988 346.346936 C917.984833 355.295555 913.361027 364.490516 906.584911 370.556458 C899.808795 376.622401 891.145056 380.093452 882.563151 383.103821 C845.866892 395.976172 806.979677 402.577029 768.091233 402.534701 C777.427474 411.600492 791.847001 412.195113 804.860508 412.246042 C849.883217 412.422239 898.574688 411.426488 934.315520 384.046418 C945.070631 375.807222 954.667893 365.176366 967.647859 361.293421 C971.842154 360.038702 976.287720 359.534876 980.251326 357.675774 C984.214932 355.816673 987.760138 352.075194 987.600373 347.700162 C987.393717 342.041106 981.227282 338.367198 975.586820 337.864386 C969.946358 337.361575 964.266500 338.891423 958.630087 338.345098 C952.993673 337.798773 946.867300 334.007973 946.791705 328.345649 C946.733743 324.004159 950.160731 320.525754 953.186060 317.411388 C964.291137 305.979486 973.242722 291.900804 975.996635 276.202809 C978.750547 260.504814 974.549699 243.118825 962.891481 232.251578 C951.233264 221.384331 931.796049 218.810861 919.020009 228.338920 C914.388512 231.792976 909.337995 236.923414 903.884497 235.015372 C897.669205 232.840787 891.355832 237.636752 884.887861 238.871253 C874.812034 240.794364 864.826313 233.477665 860.169792 224.337782 C856.423266 216.984048 853.130147 206.789604 844.877868 206.672372 C839.948163 206.602341 836.009976 210.558086 832.709024 214.220136 C826.333917 221.292628 819.485279 230.292387 822.311566 239.384925 C824.213412 245.503417 830.021561 249.492386 835.718565 252.424468 C859.159603 264.488889 886.218431 266.635300 912.167963 271.288722 C922.112218 273.071984 933.668919 276.713380 936.619616 286.375762 M685.351941 163.236126 C718.475448 128.307953 766.565027 108.073825 814.696067 108.813410 C821.605941 108.919587 830.866265 112.148893 829.747216 118.968376 C828.833789 124.534795 834.823998 129.376047 840.460549 129.155473 C846.097101 128.934899 850.973828 125.181230 854.804119 121.040188 C858.634410 116.899145 861.913929 112.151109 866.497342 108.862996 C877.555557 100.929896 892.782505 103.528212 905.853529 107.318531 C914.829924 109.921497 923.770104 112.963796 931.783080 117.774544 C941.486574 123.600228 949.519245 131.827519 958.849860 138.233455 C968.180474 144.639391 979.756710 149.266593 990.722125 146.463724 C996.013127 145.111295 1001.548290 140.419961 1000.071274 135.162378 C999.512427 133.173124 998.042749 131.587587 996.595917 130.112429 C960.243392 93.048229 906.468172 73.852128 854.862358 79.517905 C838.817167 81.279499 822.801127 76.946136 806.718885 75.563070 C776.549494 72.968513 745.563896 81.157430 720.615568 98.318573 C699.204840 113.046315 681.363299 137.557021 685.351941 163.236125 M804.465538 158.904996 C808.931480 162.366346 813.437817 165.853104 818.516370 168.329770 C825.205230 171.591737 832.626604 172.978955 839.944290 174.332744 C863.174168 178.630323 886.706156 182.946751 910.271727 181.285345 C912.023633 181.161834 913.839759 180.984947 915.353823 180.094980 C919.775239 177.496076 919.025536 170.732519 916.388193 166.333923 C912.206131 159.359020 904.992268 154.619000 897.339160 151.867858 C889.686051 149.116716 881.525975 148.151911 873.448585 147.206064 C852.414280 144.742987 830.920480 142.298554 810.222828 146.783632 C807.880134 147.291282 805.469645 147.929202 803.627268 149.462686 C801.784892 150.996169 800.679725 153.669219 801.648904 155.861619 C802.213910 157.139728 803.361023 158.048936 804.465538 158.904996 M1039.957304 300.602571 C1042.609465 303.185943 1047.114730 302.966611 1050.246600 300.991981 C1053.378469 299.017351 1055.392609 295.698663 1057.015011 292.370664 C1064.710036 276.586034 1065.903771 257.749460 1060.262956 241.119694 C1054.622141 224.489928 1042.214594 210.266909 1026.504226 202.421384 C1024.592216 201.466554 1022.463659 200.581707 1020.375112 201.034978 C1018.286565 201.488249 1016.534854 203.894725 1017.528407 205.786903 C1031.123063 231.677329 1038.039161 261.039366 1037.429347 290.275593 C1037.353171 293.927641 1037.340646 298.053775 1039.957307 300.602568 M1121.774122 248.724622 C1127.574134 238.833563 1125.827621 226.024068 1120.761863 215.737607 C1109.440561 192.748744 1081.585720 179.245840 1056.525611 184.598462 C1053.818143 185.176755 1050.919431 186.112326 1049.402563 188.428334 C1047.885695 190.744342 1048.908142 194.696964 1051.664170 194.959820 C1082.566898 197.907149 1110.912054 219.644030 1121.774122 248.724622 M672.132140 336.303244 C675.589136 340.687524 679.714000 344.704853 684.790838 347.028309 C689.867676 349.351764 696.019634 349.783849 700.961854 347.186314 C705.904074 344.588779 709.147671 338.606761 707.683134 333.219010 C706.717377 329.666171 704.017941 326.889543 701.418983 324.281718 C698.067844 320.919144 694.716706 317.556571 691.365567 314.193998 C686.989518 309.803018 681.671346 305.063797 675.518600 305.821576 C669.324017 306.584505 665.050302 313.123862 665.028852 319.365213 C665.007401 325.606563 668.267646 331.402159 672.132139 336.303241 M1015.695545 188.794575 C1018.873981 188.672508 1021.788904 187.023274 1024.364587 185.156937 C1031.614836 179.903412 1037.308427 172.528503 1040.555697 164.184591 C1042.760939 158.518188 1043.631995 151.496196 1039.715946 146.844769 C1035.893942 142.305044 1028.708679 141.896645 1023.350059 144.446547 C1017.991439 146.996450 1014.112942 151.834057 1010.747898 156.722133 C1006.920816 162.281366 1003.384381 168.529676 1003.539047 175.277096 C1003.693713 182.024516 1008.951323 189.053585 1015.695544 188.794574 M792.480658 179.032139 C795.546544 172.941638 795.412326 165.347087 792.133148 159.368722 C790.479555 156.354008 787.375643 153.504812 784.014875 154.231514 C780.324655 155.029456 778.828460 159.480576 778.579903 163.247889 C778.321611 167.162772 778.687818 171.118201 779.660463 174.919118 C780.241630 177.190209 781.086031 179.484663 782.736278 181.149681 C784.386525 182.814698 787.014335 183.693613 789.151693 182.730650 C790.694433 182.035584 791.719839 180.543533 792.480657 179.032139 z"/></svg>